<mxfile host="Electron" agent="Mozilla/5.0 (Macintosh; Intel Mac OS X 10_15_7) AppleWebKit/537.36 (KHTML, like Gecko) draw.io/26.2.2 Chrome/134.0.6998.178 Electron/35.1.2 Safari/537.36" version="26.2.2">
  <diagram name="Page-1" id="N16ykWlb5GLugd2mw7WU">
    <mxGraphModel dx="1108" dy="1158" grid="1" gridSize="10" guides="1" tooltips="1" connect="1" arrows="1" fold="1" page="1" pageScale="1" pageWidth="827" pageHeight="1169" math="0" shadow="0">
      <root>
        <mxCell id="0" />
        <mxCell id="1" parent="0" />
        <mxCell id="2WCUq0pR1KR16HoUVAUC-1" value="" style="rounded=0;whiteSpace=wrap;html=1;spacing=1;spacingBottom=0;labelPosition=center;verticalLabelPosition=bottom;align=center;verticalAlign=top;" vertex="1" parent="1">
          <mxGeometry x="190" y="130" width="300" height="450" as="geometry" />
        </mxCell>
        <mxCell id="2WCUq0pR1KR16HoUVAUC-2" value="&lt;font style=&quot;font-size: 15px;&quot;&gt;JTDO1&lt;/font&gt;" style="text;html=1;align=left;verticalAlign=middle;whiteSpace=wrap;rounded=0;" vertex="1" parent="1">
          <mxGeometry x="200" y="160" width="60" height="30" as="geometry" />
        </mxCell>
        <mxCell id="2WCUq0pR1KR16HoUVAUC-3" value="&lt;font style=&quot;font-size: 15px;&quot;&gt;JTDO2&lt;/font&gt;" style="text;html=1;align=left;verticalAlign=middle;whiteSpace=wrap;rounded=0;" vertex="1" parent="1">
          <mxGeometry x="200" y="200" width="60" height="30" as="geometry" />
        </mxCell>
        <mxCell id="2WCUq0pR1KR16HoUVAUC-4" value="&lt;font style=&quot;font-size: 15px;&quot;&gt;TCK&lt;/font&gt;" style="text;html=1;align=left;verticalAlign=middle;whiteSpace=wrap;rounded=0;" vertex="1" parent="1">
          <mxGeometry x="200" y="240" width="60" height="30" as="geometry" />
        </mxCell>
        <mxCell id="2WCUq0pR1KR16HoUVAUC-7" value="&lt;font style=&quot;font-size: 15px;&quot;&gt;TMS&lt;/font&gt;" style="text;html=1;align=left;verticalAlign=middle;whiteSpace=wrap;rounded=0;" vertex="1" parent="1">
          <mxGeometry x="200" y="280" width="60" height="30" as="geometry" />
        </mxCell>
        <mxCell id="2WCUq0pR1KR16HoUVAUC-8" value="&lt;font style=&quot;font-size: 15px;&quot;&gt;TDI&lt;/font&gt;" style="text;html=1;align=left;verticalAlign=middle;whiteSpace=wrap;rounded=0;" vertex="1" parent="1">
          <mxGeometry x="200" y="320" width="60" height="30" as="geometry" />
        </mxCell>
        <mxCell id="2WCUq0pR1KR16HoUVAUC-9" value="&lt;span style=&quot;font-size: 15px;&quot;&gt;JTDI&lt;/span&gt;" style="text;html=1;align=right;verticalAlign=middle;whiteSpace=wrap;rounded=0;" vertex="1" parent="1">
          <mxGeometry x="410" y="150" width="60" height="30" as="geometry" />
        </mxCell>
        <mxCell id="2WCUq0pR1KR16HoUVAUC-10" value="&lt;font style=&quot;font-size: 15px;&quot;&gt;JTCK&lt;/font&gt;" style="text;html=1;align=right;verticalAlign=middle;whiteSpace=wrap;rounded=0;" vertex="1" parent="1">
          <mxGeometry x="410" y="190" width="60" height="30" as="geometry" />
        </mxCell>
        <mxCell id="2WCUq0pR1KR16HoUVAUC-12" value="&lt;font style=&quot;font-size: 15px;&quot;&gt;JRTI2&lt;/font&gt;" style="text;html=1;align=right;verticalAlign=middle;whiteSpace=wrap;rounded=0;" vertex="1" parent="1">
          <mxGeometry x="410" y="270" width="60" height="30" as="geometry" />
        </mxCell>
        <mxCell id="2WCUq0pR1KR16HoUVAUC-13" value="&lt;font style=&quot;font-size: 15px;&quot;&gt;JSHIFT&lt;/font&gt;" style="text;html=1;align=right;verticalAlign=middle;whiteSpace=wrap;rounded=0;" vertex="1" parent="1">
          <mxGeometry x="410" y="310" width="60" height="30" as="geometry" />
        </mxCell>
        <mxCell id="2WCUq0pR1KR16HoUVAUC-14" value="&lt;font style=&quot;font-size: 15px;&quot;&gt;JUPDATE&lt;/font&gt;" style="text;html=1;align=right;verticalAlign=middle;whiteSpace=wrap;rounded=0;" vertex="1" parent="1">
          <mxGeometry x="390" y="350" width="80" height="30" as="geometry" />
        </mxCell>
        <mxCell id="2WCUq0pR1KR16HoUVAUC-15" value="&lt;font style=&quot;font-size: 15px;&quot;&gt;JRSTN&lt;/font&gt;" style="text;html=1;align=right;verticalAlign=middle;whiteSpace=wrap;rounded=0;" vertex="1" parent="1">
          <mxGeometry x="410" y="390" width="60" height="30" as="geometry" />
        </mxCell>
        <mxCell id="2WCUq0pR1KR16HoUVAUC-16" value="&lt;font style=&quot;font-size: 15px;&quot;&gt;JEC1&lt;/font&gt;" style="text;html=1;align=right;verticalAlign=middle;whiteSpace=wrap;rounded=0;" vertex="1" parent="1">
          <mxGeometry x="410" y="435" width="60" height="30" as="geometry" />
        </mxCell>
        <mxCell id="2WCUq0pR1KR16HoUVAUC-18" value="&lt;font style=&quot;font-size: 15px;&quot;&gt;TDO&lt;/font&gt;" style="text;html=1;align=right;verticalAlign=middle;whiteSpace=wrap;rounded=0;" vertex="1" parent="1">
          <mxGeometry x="410" y="530" width="60" height="30" as="geometry" />
        </mxCell>
        <mxCell id="2WCUq0pR1KR16HoUVAUC-19" value="&lt;font style=&quot;font-size: 15px;&quot;&gt;JRTI1&lt;/font&gt;" style="text;html=1;align=right;verticalAlign=middle;whiteSpace=wrap;rounded=0;" vertex="1" parent="1">
          <mxGeometry x="410" y="230" width="60" height="30" as="geometry" />
        </mxCell>
        <mxCell id="2WCUq0pR1KR16HoUVAUC-20" value="&lt;font style=&quot;font-size: 15px;&quot;&gt;JEC2&lt;/font&gt;" style="text;html=1;align=right;verticalAlign=middle;whiteSpace=wrap;rounded=0;" vertex="1" parent="1">
          <mxGeometry x="410" y="480" width="60" height="30" as="geometry" />
        </mxCell>
        <mxCell id="2WCUq0pR1KR16HoUVAUC-21" value="&lt;font style=&quot;font-size: 21px;&quot;&gt;&lt;b&gt;JTAGG&lt;/b&gt;&lt;/font&gt;" style="text;html=1;align=center;verticalAlign=middle;whiteSpace=wrap;rounded=0;" vertex="1" parent="1">
          <mxGeometry x="310" y="530" width="60" height="30" as="geometry" />
        </mxCell>
      </root>
    </mxGraphModel>
  </diagram>
</mxfile>
